<?xml version="1.0" encoding="UTF-8"?> <svg xmlns="http://www.w3.org/2000/svg" xmlns:xlink="http://www.w3.org/1999/xlink" version="1.1" id="Layer_1" width="50px" height="50px" viewBox="0 0 171 190" xml:space="preserve"> <path fill="none" opacity="1.000000" stroke="none" d=" M172.000000,78.000000 C172.000000,116.000000 172.000000,153.500000 172.000000,191.000000 C115.000000,191.000000 58.000000,191.000000 1.000000,191.000000 C1.000000,127.666664 1.000000,64.333336 1.000000,1.000000 C58.000000,1.000000 115.000000,1.000000 172.000000,1.000000 C172.000000,26.500000 172.000000,52.000000 172.000000,78.000000 M6.218463,185.758698 C8.158367,186.023651 10.098271,186.288605 12.964698,186.447098 C29.460094,186.443375 45.957207,186.301483 62.450008,186.506393 C68.728333,186.584396 72.106384,183.835876 72.049019,176.810211 C71.902100,158.816528 72.006081,140.820862 71.986839,122.826012 C71.985497,121.570297 71.796310,120.314774 71.712860,119.285881 C62.898460,117.990982 54.139431,120.694389 44.998909,117.220001 C48.453712,112.366707 51.391506,108.353279 54.185127,104.241890 C54.962406,103.097954 55.312843,101.664001 55.859108,100.363098 C54.529335,99.908752 53.222256,99.364685 51.864441,99.021194 C49.854282,98.512657 47.808113,98.146477 44.959728,97.547882 C49.207047,91.254135 52.771477,85.972298 57.043655,79.641716 C53.932636,79.361290 51.912128,79.280022 49.929256,78.963181 C48.710617,78.768463 46.760887,78.457542 46.546104,77.763489 C46.217865,76.702820 46.811184,75.066475 47.521564,74.019363 C55.487827,62.276802 63.502113,50.565914 71.615425,38.924519 C74.528549,34.744610 77.743492,30.775045 81.036316,26.424597 C91.123909,40.993351 100.863640,55.019150 110.547935,69.083115 C112.305840,71.636017 113.836868,74.345139 115.472633,76.982140 C112.499107,77.953064 109.525581,78.923988 105.496422,80.239601 C107.029137,82.923706 108.721199,86.000336 110.524254,89.010483 C112.128662,91.688995 113.856041,94.293854 115.529152,96.931221 C112.567261,97.925354 109.605362,98.919487 106.005882,100.127625 C106.238777,100.848442 106.444206,102.399834 107.191620,103.618958 C109.125282,106.773056 111.374123,109.732910 113.339172,112.869286 C114.169586,114.194695 114.603592,115.768456 115.217773,117.229332 C113.457405,117.819557 111.711067,118.863998 109.934166,118.918892 C103.344658,119.122475 96.745079,119.000000 90.302895,119.000000 C90.302895,123.367256 90.302895,127.115021 90.302895,131.393463 C94.383675,130.899673 98.125084,130.595337 101.812469,129.971664 C111.196686,128.384476 120.859756,127.614723 129.860947,124.774124 C146.606567,119.489525 158.987549,108.628487 164.669312,91.568825 C168.651596,79.611923 169.204361,67.154861 166.842056,54.779766 C165.079529,45.546673 161.527710,36.958515 155.221680,29.707560 C140.884842,13.222432 121.697433,6.936014 100.993370,6.250061 C71.367683,5.268522 41.685226,5.991678 12.027020,6.006971 C6.038233,6.010059 4.010431,7.981894 4.008843,13.862484 C3.993948,69.013428 3.981128,124.164406 4.079164,179.315186 C4.082566,181.228851 5.253180,183.140457 6.218463,185.758698 z"></path> <path fill="#7a9c7b" opacity="1.000000" stroke="none" d=" M5.879766,185.053024 C5.253180,183.140457 4.082566,181.228851 4.079164,179.315186 C3.981128,124.164406 3.993948,69.013428 4.008843,13.862484 C4.010431,7.981894 6.038233,6.010059 12.027020,6.006971 C41.685226,5.991678 71.367683,5.268522 100.993370,6.250061 C121.697433,6.936014 140.884842,13.222432 155.221680,29.707560 C161.527710,36.958515 165.079529,45.546673 166.842056,54.779766 C169.204361,67.154861 168.651596,79.611923 164.669312,91.568825 C158.987549,108.628487 146.606567,119.489525 129.860947,124.774124 C120.859756,127.614723 111.196686,128.384476 101.812469,129.971664 C98.125084,130.595337 94.383675,130.899673 90.302895,131.393463 C90.302895,127.115021 90.302895,123.367256 90.302895,119.000000 C96.745079,119.000000 103.344658,119.122475 109.934166,118.918892 C111.711067,118.863998 113.457405,117.819557 115.217773,117.229340 C114.603592,115.768456 114.169586,114.194695 113.339172,112.869286 C111.374123,109.732910 109.125282,106.773056 107.191620,103.618958 C106.444206,102.399834 106.238777,100.848442 106.005882,100.127625 C109.605362,98.919487 112.567261,97.925354 115.529152,96.931213 C113.856041,94.293854 112.128662,91.688995 110.524254,89.010483 C108.721199,86.000336 107.029137,82.923706 105.496422,80.239601 C109.525581,78.923988 112.499107,77.953064 115.472633,76.982140 C113.836868,74.345139 112.305840,71.636017 110.547935,69.083115 C100.863640,55.019150 91.123909,40.993351 81.036316,26.424597 C77.743492,30.775045 74.528549,34.744610 71.615425,38.924519 C63.502113,50.565914 55.487827,62.276802 47.521564,74.019363 C46.811184,75.066475 46.217865,76.702820 46.546104,77.763489 C46.760887,78.457542 48.710617,78.768463 49.929256,78.963181 C51.912128,79.280022 53.932636,79.361290 57.043655,79.641716 C52.771477,85.972298 49.207047,91.254135 44.959728,97.547882 C47.808113,98.146477 49.854282,98.512657 51.864441,99.021194 C53.222256,99.364685 54.529335,99.908752 55.859108,100.363098 C55.312843,101.664001 54.962406,103.097954 54.185127,104.241890 C51.391506,108.353279 48.453712,112.366707 44.998909,117.220001 C54.139431,120.694389 62.898460,117.990982 71.712860,119.285881 C71.796310,120.314774 71.985497,121.570297 71.986839,122.826012 C72.006081,140.820862 71.902100,158.816528 72.049019,176.810211 C72.106384,183.835876 68.728333,186.584396 62.450008,186.506393 C45.957207,186.301483 29.460094,186.443375 12.386845,186.151306 C9.832582,185.587997 7.856174,185.320511 5.879766,185.053024 z"></path> <path fill="#7a9c7b" opacity="1.000000" stroke="none" d=" M6.049114,185.405853 C7.856174,185.320511 9.832582,185.587997 11.923582,186.204529 C10.098271,186.288605 8.158367,186.023651 6.049114,185.405853 z"></path> </svg> 